<svg width="87.000000" height="81.965820" viewBox="0 0 87 81.9658" fill="none" xmlns="http://www.w3.org/2000/svg" xmlns:xlink="http://www.w3.org/1999/xlink">
	<desc>
			Created with Pixso.
	</desc>
	<defs/>
	<path id="path14" d="M62.57 49.03C62.55 49.06 62.52 49.11 62.49 49.12C62.18 49.15 61.87 49.2 61.56 49.2C57.19 49.21 52.83 49.21 48.53 49.21C48.44 49.07 48.42 49.04 48.4 49C48.38 48.96 48.36 48.91 48.37 48.88C48.58 48.56 48.77 48.23 49.01 47.93C51.11 45.29 53.23 42.66 55.49 39.84C58.01 42.97 60.36 45.91 62.67 48.79C62.6 48.95 62.59 48.99 62.57 49.03ZM55.27 59.59C52.78 57.05 50.41 54.65 48 52.2C49.02 51.84 60.98 51.77 62.57 52.13C60.18 54.64 57.78 57.01 55.27 59.59ZM42.17 72.9C42.07 72.84 41.97 72.79 41.87 72.74C43.23 66.4 44.58 60.06 45.94 53.72C46.06 53.7 46.17 53.68 46.29 53.67C48.73 56.14 51.17 58.62 53.69 61.19C49.79 65.15 45.98 69.02 42.17 72.9ZM48.55 41.62C48.8 40.28 49.11 38.96 49.39 37.63C49.67 36.35 49.94 35.07 50.23 33.75C51.1 34.26 52.8 36.26 53.97 38.12C52.01 40.57 50.07 42.99 48.12 45.42C47.82 44.06 48.31 42.85 48.55 41.62ZM55.11 11.71C56.59 17.38 57.81 23.09 59.04 28.78C58 29.13 53.01 29.2 51.29 28.88C52.42 23.15 53.72 17.46 55.11 11.71ZM55.36 36.05C54.32 34.76 53.29 33.48 52.26 32.2C52.34 32.11 52.41 32.02 52.49 31.93L58.52 31.93C58.33 32.81 56.63 35.04 55.36 36.05ZM60.22 34.39C61.08 37.69 61.73 41.03 62.45 44.36C62.35 44.41 62.24 44.46 62.14 44.51C60.44 42.39 58.74 40.27 56.94 38.04C57.94 36.8 58.93 35.57 59.92 34.34C60.02 34.36 60.12 34.38 60.22 34.39ZM69.15 49.21C68.75 49.21 68.34 49.2 67.94 49.2C67.4 49.21 67.09 48.98 67.03 48.46C67 48.21 66.9 47.97 66.85 47.72C65.69 42.41 64.54 37.11 63.39 31.81L84.38 31.81C84.15 30.86 83.85 29.92 83.6 28.97C76.82 28.97 70.04 28.97 63.27 28.97L62.77 28.97C61.12 21.36 59.47 13.76 57.81 6.15C57.56 4.96 57.27 3.77 57 2.59L53.25 2.59C51.36 11.4 49.47 20.17 47.56 29.07L45.87 29.07C38.87 29.07 31.87 29.07 24.87 29.08C24.35 29.08 23.83 29.11 23.36 29.13L23.36 31.91L46.92 31.91C45.74 37.76 44.51 43.43 43.22 49.22L3.98 49.22L3.98 51.77C4.66 51.81 5.33 51.9 6 51.9C17.65 51.91 29.29 51.9 40.94 51.91C41.46 51.91 41.99 51.94 42.66 51.96C40.69 61.18 38.72 70.36 36.76 79.54C37.95 79.64 39.15 79.74 40.35 79.83C40.42 79.5 40.49 79.16 40.56 78.83C40.73 78.92 41.19 79.32 41.84 79.93C42.99 79.99 44.14 80.03 45.29 80.04C44.05 78.74 43.12 77.72 42.86 77.34L58.85 77.34C59.07 77.16 59.35 77.02 59.69 76.93C60.88 76.64 62.01 76.23 63.11 75.75C56.43 75.75 49.73 75.75 42.94 75.75C43.03 75.46 43.04 75.24 43.15 75.12C47.04 71.15 50.93 67.2 54.83 63.25C54.94 63.13 55.11 63.06 55.37 62.89C59.05 66.63 62.72 70.36 66.36 74.07C66.86 73.77 67.35 73.47 67.84 73.16C68 72.96 68.16 72.76 68.32 72.56C66.28 70.86 58.15 62.69 56.93 61.1C59.33 58.66 61.76 56.19 64.43 53.49C65.91 59.88 67.2 66.02 68.57 72.25C69.45 71.18 70.38 70.16 71.58 69.37C70.31 63.56 69.05 57.74 67.78 51.9L69.58 51.9C74.4 51.9 79.21 51.9 84.03 51.9C84.18 50.99 84.33 50.09 84.55 49.21C79.42 49.21 74.29 49.21 69.15 49.21Z" fill="#B00E2F" fill-opacity="1.000000" fill-rule="nonzero"/>
	<path id="path14" d="M62.49 49.12C62.18 49.15 61.87 49.2 61.56 49.2C57.19 49.21 52.83 49.21 48.53 49.21C48.44 49.07 48.42 49.04 48.4 49C48.38 48.96 48.36 48.91 48.37 48.88C48.58 48.56 48.77 48.23 49.01 47.93C51.11 45.29 53.23 42.66 55.49 39.84C58.01 42.97 60.36 45.91 62.67 48.79C62.6 48.95 62.59 48.99 62.57 49.03C62.55 49.06 62.52 49.11 62.49 49.12ZM48 52.2C49.02 51.84 60.98 51.77 62.57 52.13C60.18 54.64 57.78 57.01 55.27 59.59C52.78 57.05 50.41 54.65 48 52.2ZM41.87 72.74C43.23 66.4 44.58 60.06 45.94 53.72C46.06 53.7 46.17 53.68 46.29 53.67C48.73 56.14 51.17 58.62 53.69 61.19C49.79 65.15 45.98 69.02 42.17 72.9C42.07 72.84 41.97 72.79 41.87 72.74ZM49.39 37.63C49.67 36.35 49.94 35.07 50.23 33.75C51.1 34.26 52.8 36.26 53.97 38.12C52.01 40.57 50.07 42.99 48.12 45.42C47.82 44.06 48.31 42.85 48.55 41.62C48.8 40.28 49.11 38.96 49.39 37.63ZM59.04 28.78C58 29.13 53.01 29.2 51.29 28.88C52.42 23.15 53.72 17.46 55.11 11.71C56.59 17.38 57.81 23.09 59.04 28.78ZM52.26 32.2C52.34 32.11 52.41 32.02 52.49 31.93L58.52 31.93C58.33 32.81 56.63 35.04 55.36 36.05C54.32 34.76 53.29 33.48 52.26 32.2ZM62.45 44.36C62.35 44.41 62.24 44.46 62.14 44.51C60.44 42.39 58.74 40.27 56.94 38.04C57.94 36.8 58.93 35.57 59.92 34.34C60.02 34.36 60.12 34.38 60.22 34.39C61.08 37.69 61.73 41.03 62.45 44.36ZM67.94 49.2C67.4 49.21 67.09 48.98 67.03 48.46C67 48.21 66.9 47.97 66.85 47.72C65.69 42.41 64.54 37.11 63.39 31.81L84.38 31.81C84.15 30.86 83.85 29.92 83.6 28.97C76.82 28.97 70.04 28.97 63.27 28.97L62.77 28.97C61.12 21.36 59.47 13.76 57.81 6.15C57.56 4.96 57.27 3.77 57 2.59L53.25 2.59C51.36 11.4 49.47 20.17 47.56 29.07L45.87 29.07C38.87 29.07 31.87 29.07 24.87 29.08C24.35 29.08 23.83 29.11 23.36 29.13L23.36 31.91L46.92 31.91C45.74 37.76 44.51 43.43 43.22 49.22L3.98 49.22L3.98 51.77C4.66 51.81 5.33 51.9 6 51.9C17.65 51.91 29.29 51.9 40.94 51.91C41.46 51.91 41.99 51.94 42.66 51.96C40.69 61.18 38.72 70.36 36.76 79.54C37.95 79.64 39.15 79.74 40.35 79.83C40.42 79.5 40.49 79.16 40.56 78.83C40.73 78.92 41.19 79.32 41.84 79.93C42.99 79.99 44.14 80.03 45.29 80.04C44.05 78.74 43.12 77.72 42.86 77.34L58.85 77.34C59.07 77.16 59.35 77.02 59.69 76.93C60.88 76.64 62.01 76.23 63.11 75.75C56.43 75.75 49.73 75.75 42.94 75.75C43.03 75.46 43.04 75.24 43.15 75.12C47.04 71.15 50.93 67.2 54.83 63.25C54.94 63.13 55.11 63.06 55.37 62.89C59.05 66.63 62.72 70.36 66.36 74.07C66.86 73.77 67.35 73.47 67.84 73.16C68 72.96 68.16 72.76 68.32 72.56C66.28 70.86 58.15 62.69 56.93 61.1C59.33 58.66 61.76 56.19 64.43 53.49C65.91 59.88 67.2 66.02 68.57 72.25C69.45 71.18 70.38 70.16 71.58 69.37C70.31 63.56 69.05 57.74 67.78 51.9L69.58 51.9C74.4 51.9 79.21 51.9 84.03 51.9C84.18 50.99 84.33 50.09 84.55 49.21C79.42 49.21 74.29 49.21 69.15 49.21C68.75 49.21 68.34 49.2 67.94 49.2Z" stroke="#000000" stroke-opacity="0" stroke-width="0.133333"/>
	<path id="path16" d="M34.86 41.14C34.97 39.9 34.64 39.29 33.64 39.21C32.39 39.1 31.12 39.1 29.87 39.2C28.78 39.29 28.4 40.04 28.72 41.14C30.77 41.14 32.82 41.14 34.86 41.14Z" fill="#B00E2F" fill-opacity="1.000000" fill-rule="nonzero"/>
	<path id="path16" d="M33.64 39.21C32.39 39.1 31.12 39.1 29.87 39.2C28.78 39.29 28.4 40.04 28.72 41.14C30.77 41.14 32.82 41.14 34.86 41.14C34.97 39.9 34.64 39.29 33.64 39.21Z" stroke="#000000" stroke-opacity="0" stroke-width="0.133333"/>
	<path id="path18" d="M33.22 33.14C32.23 33.12 31.24 33.11 30.25 33.14C28.9 33.16 28.5 33.63 28.62 35.04C30.71 35.04 32.81 35.04 34.9 35.04C34.95 33.58 34.58 33.16 33.22 33.14Z" fill="#B00E2F" fill-opacity="1.000000" fill-rule="nonzero"/>
	<path id="path18" d="M30.25 33.14C28.9 33.16 28.5 33.63 28.62 35.04C30.71 35.04 32.81 35.04 34.9 35.04C34.95 33.58 34.58 33.16 33.22 33.14C32.23 33.12 31.24 33.11 30.25 33.14Z" stroke="#000000" stroke-opacity="0" stroke-width="0.133333"/>
	<path id="path20" d="M33.38 36.17C32.3 36.13 31.22 36.13 30.15 36.17C28.91 36.21 28.53 36.7 28.62 38.07C30.7 38.07 32.78 38.07 34.85 38.07C35 36.75 34.6 36.22 33.38 36.17Z" fill="#B00E2F" fill-opacity="1.000000" fill-rule="nonzero"/>
	<path id="path20" d="M30.15 36.17C28.91 36.21 28.53 36.7 28.62 38.07C30.7 38.07 32.78 38.07 34.85 38.07C35 36.75 34.6 36.22 33.38 36.17C32.3 36.13 31.22 36.13 30.15 36.17Z" stroke="#000000" stroke-opacity="0" stroke-width="0.133333"/>
	<path id="path22" d="M14.95 59.22C13.97 59.2 12.98 59.2 11.99 59.22C10.75 59.25 10.37 59.67 10.31 61.18C12.47 61.18 14.55 61.23 16.63 61.16C16.58 59.65 16.21 59.25 14.95 59.22Z" fill="#B00E2F" fill-opacity="1.000000" fill-rule="nonzero"/>
	<path id="path22" d="M11.99 59.22C10.75 59.25 10.37 59.67 10.31 61.18C12.47 61.18 14.55 61.23 16.63 61.16C16.58 59.65 16.21 59.25 14.95 59.22C13.97 59.2 12.98 59.2 11.99 59.22Z" stroke="#000000" stroke-opacity="0" stroke-width="0.133333"/>
	<path id="path24" d="M12.1 56.17C10.77 56.19 10.35 56.63 10.33 58.08C12.48 58.08 14.52 58.08 16.57 58.08C16.68 56.7 16.24 56.2 14.92 56.17C13.98 56.15 13.04 56.15 12.1 56.17Z" fill="#B00E2F" fill-opacity="1.000000" fill-rule="nonzero"/>
	<path id="path24" d="M10.33 58.08C12.48 58.08 14.52 58.08 16.57 58.08C16.68 56.7 16.24 56.2 14.92 56.17C13.98 56.15 13.04 56.15 12.1 56.17C10.77 56.19 10.35 56.63 10.33 58.08Z" stroke="#000000" stroke-opacity="0" stroke-width="0.133333"/>
	<path id="path26" d="M14.89 53.11C13.95 53.08 13 53.09 12.06 53.11C10.81 53.14 10.42 53.54 10.28 55.05C12.42 55.05 14.51 55.05 16.59 55.05C16.64 53.64 16.2 53.14 14.89 53.11Z" fill="#B00E2F" fill-opacity="1.000000" fill-rule="nonzero"/>
	<path id="path26" d="M12.06 53.11C10.81 53.14 10.42 53.54 10.28 55.05C12.42 55.05 14.51 55.05 16.59 55.05C16.64 53.64 16.2 53.14 14.89 53.11C13.95 53.08 13 53.09 12.06 53.11Z" stroke="#000000" stroke-opacity="0" stroke-width="0.133333"/>
	<path id="path28" d="M79.26 39.1C78.01 39 76.74 39 75.49 39.1C74.49 39.19 74.16 39.79 74.27 41.04C76.31 41.04 78.36 41.04 80.41 41.04C80.73 39.94 80.35 39.19 79.26 39.1Z" fill="#B00E2F" fill-opacity="1.000000" fill-rule="nonzero"/>
	<path id="path28" d="M75.49 39.1C74.49 39.19 74.16 39.79 74.27 41.04C76.31 41.04 78.36 41.04 80.41 41.04C80.73 39.94 80.35 39.19 79.26 39.1C78.01 39 76.74 39 75.49 39.1Z" stroke="#000000" stroke-opacity="0" stroke-width="0.133333"/>
	<path id="path30" d="M78.89 33.03C77.89 33.01 76.9 33.01 75.91 33.03C74.55 33.06 74.18 33.48 74.24 34.94C76.33 34.94 78.42 34.94 80.51 34.94C80.63 33.53 80.23 33.06 78.89 33.03Z" fill="#B00E2F" fill-opacity="1.000000" fill-rule="nonzero"/>
	<path id="path30" d="M75.91 33.03C74.55 33.06 74.18 33.48 74.24 34.94C76.33 34.94 78.42 34.94 80.51 34.94C80.63 33.53 80.23 33.06 78.89 33.03C77.89 33.01 76.9 33.01 75.91 33.03Z" stroke="#000000" stroke-opacity="0" stroke-width="0.133333"/>
	<path id="path32" d="M78.98 36.06C77.91 36.03 76.83 36.02 75.75 36.07C74.54 36.12 74.14 36.65 74.28 37.97C76.36 37.97 78.44 37.97 80.51 37.97C80.61 36.6 80.22 36.11 78.98 36.06Z" fill="#B00E2F" fill-opacity="1.000000" fill-rule="nonzero"/>
	<path id="path32" d="M75.75 36.07C74.54 36.12 74.14 36.65 74.28 37.97C76.36 37.97 78.44 37.97 80.51 37.97C80.61 36.6 80.22 36.11 78.98 36.06C77.91 36.03 76.83 36.02 75.75 36.07Z" stroke="#000000" stroke-opacity="0" stroke-width="0.133333"/>
	<path id="path34" d="M43.5 2.92C21.22 2.92 3.1 19.99 3.1 40.98C3.1 61.97 21.22 79.04 43.5 79.04C65.77 79.04 83.89 61.97 83.89 40.98C83.89 19.99 65.77 2.92 43.5 2.92ZM43.5 81.96C37.62 81.96 31.93 80.88 26.56 78.74C21.38 76.68 16.73 73.72 12.74 69.96C8.74 66.19 5.61 61.81 3.41 56.93C1.15 51.88 0 46.51 0 40.98C0 35.45 1.15 30.08 3.41 25.03C5.6 20.14 8.74 15.76 12.74 12C16.73 8.24 21.38 5.28 26.56 3.22C31.93 1.08 37.62 0 43.5 0C49.37 0 55.06 1.08 60.43 3.22C65.61 5.28 70.26 8.24 74.25 12C78.25 15.76 81.38 20.14 83.58 25.03C85.84 30.08 87 35.45 87 40.98C87 46.51 85.84 51.88 83.58 56.93C81.38 61.81 78.25 66.19 74.25 69.96C70.26 73.72 65.61 76.68 60.43 78.74C55.06 80.88 49.37 81.96 43.5 81.96Z" fill="#FFFFFF" fill-opacity="1.000000" fill-rule="nonzero"/>
	<path id="path34" d="M3.1 40.98C3.1 61.97 21.22 79.04 43.5 79.04C65.77 79.04 83.89 61.97 83.89 40.98C83.89 19.99 65.77 2.92 43.5 2.92C21.22 2.92 3.1 19.99 3.1 40.98ZM26.56 78.74C21.38 76.68 16.73 73.72 12.74 69.96C8.74 66.19 5.61 61.81 3.41 56.93C1.15 51.88 0 46.51 0 40.98C0 35.45 1.15 30.08 3.41 25.03C5.6 20.14 8.74 15.76 12.74 12C16.73 8.24 21.38 5.28 26.56 3.22C31.93 1.08 37.62 0 43.5 0C49.37 0 55.06 1.08 60.43 3.22C65.61 5.28 70.26 8.24 74.25 12C78.25 15.76 81.38 20.14 83.58 25.03C85.84 30.08 87 35.45 87 40.98C87 46.51 85.84 51.88 83.58 56.93C81.38 61.81 78.25 66.19 74.25 69.96C70.26 73.72 65.61 76.68 60.43 78.74C55.06 80.88 49.37 81.96 43.5 81.96C37.62 81.96 31.93 80.88 26.56 78.74Z" stroke="#000000" stroke-opacity="0" stroke-width="0.133333"/>
</svg>
