<svg width="15.606445" height="15.606689" viewBox="0 0 15.6064 15.6067" fill="none" xmlns="http://www.w3.org/2000/svg" xmlns:xlink="http://www.w3.org/1999/xlink">
	<desc>
			Created with Pixso.
	</desc>
	<defs/>
	<path id="Vector 189" d="M12.34 10.01C11.95 9.61 11.32 9.61 10.92 10.01L10.1 10.83C9.95 10.98 9.73 11.01 9.55 10.92C7.44 9.87 5.73 8.16 4.67 6.05C4.58 5.87 4.62 5.65 4.76 5.5L5.59 4.67C5.98 4.28 5.98 3.65 5.59 3.26L3.32 0.98C3 0.67 2.49 0.67 2.17 0.98C0.46 2.69 0.27 5.4 1.72 7.34L2.55 8.45C3.86 10.19 5.41 11.74 7.15 13.05L8.26 13.88C10.19 15.33 12.9 15.14 14.61 13.43C14.93 13.11 14.93 12.6 14.61 12.28L12.34 10.01Z" stroke="#FFFFFF" stroke-opacity="1.000000" stroke-width="1.500000"/>
</svg>
