<svg width="22.000000" height="22.000000" viewBox="0 0 22 22" fill="none" xmlns="http://www.w3.org/2000/svg" xmlns:xlink="http://www.w3.org/1999/xlink">
	<desc>
			Created with Pixso.
	</desc>
	<defs/>
	<circle id="Ellipse 65_light" cx="10.999512" cy="11.000610" r="2.300395" stroke="#FFFFFF" stroke-opacity="1.000000" stroke-width="1.500000"/>
	<path id="Ellipse 66_light" d="M11 15.57C6.75 15.57 4.97 12.34 4.51 11.31C4.42 11.11 4.42 10.88 4.51 10.68C4.97 9.65 6.75 6.42 11 6.42C15.24 6.42 17.02 9.65 17.48 10.68C17.57 10.88 17.57 11.11 17.48 11.31C17.02 12.34 15.24 15.57 11 15.57Z" stroke="#FFFFFF" stroke-opacity="1.000000" stroke-width="1.500000"/>
	<path id="Vector 278" d="M16.59 2.35L16.89 2.35C18.65 2.35 19.52 2.35 20.08 2.89C20.09 2.9 20.1 2.92 20.12 2.93C20.65 3.48 20.65 4.36 20.65 6.11L20.65 6.42" stroke="#FFFFFF" stroke-opacity="1.000000" stroke-width="2.000000" stroke-linecap="round"/>
	<path id="Vector 280" d="M16.59 19.64L16.89 19.64C18.65 19.64 19.52 19.64 20.08 19.1C20.09 19.09 20.1 19.07 20.12 19.06C20.65 18.51 20.65 17.63 20.65 15.88L20.65 15.57" stroke="#FFFFFF" stroke-opacity="1.000000" stroke-width="2.000000" stroke-linecap="round"/>
	<path id="Vector 279" d="M5.4 2.35L5.1 2.35C3.34 2.35 2.46 2.35 1.91 2.89C1.9 2.9 1.88 2.92 1.87 2.93C1.33 3.48 1.33 4.36 1.33 6.11L1.33 6.42" stroke="#FFFFFF" stroke-opacity="1.000000" stroke-width="2.000000" stroke-linecap="round"/>
	<path id="Vector 281" d="M5.4 19.64L5.1 19.64C3.34 19.64 2.46 19.64 1.91 19.1C1.9 19.09 1.88 19.07 1.87 19.06C1.33 18.51 1.33 17.63 1.33 15.88L1.33 15.57" stroke="#FFFFFF" stroke-opacity="1.000000" stroke-width="2.000000" stroke-linecap="round"/>
</svg>
